<svg xmlns="http://www.w3.org/2000/svg" xmlns:xlink="http://www.w3.org/1999/xlink" width="500" zoomAndPan="magnify" viewBox="0 0 375 112.499997" height="150" preserveAspectRatio="xMidYMid meet" version="1.0"><defs><g/><clipPath id="ad593bb2bd"><path d="M 31.199219 18.683594 L 164.109375 18.683594 L 164.109375 93.351562 L 31.199219 93.351562 Z M 31.199219 18.683594 " clip-rule="nonzero"/></clipPath></defs><g clip-path="url(#ad593bb2bd)"><path fill="#ffffff" d="M 103.144531 82.488281 C 105.09375 81.597656 107.804688 80.554688 111.484375 79.515625 C 120.316406 77.023438 136.683594 74.050781 164.457031 74.050781 L 164.457031 71.164062 C 130.578125 71.164062 112.9375 75.464844 104.289062 78.859375 C 106.28125 77.085938 108.914062 75.066406 112.320312 73.0625 C 121.332031 67.742188 137.6875 61.410156 164.457031 61.410156 L 164.457031 58.519531 C 155.65625 58.519531 147.945312 59.195312 141.21875 60.296875 C 140.765625 49.378906 136.300781 39.167969 128.535156 31.40625 C 120.425781 23.300781 109.65625 18.785156 98.222656 18.6875 C 98.09375 18.6875 97.960938 18.6875 97.832031 18.683594 C 97.824219 18.683594 97.816406 18.683594 97.808594 18.683594 C 97.675781 18.683594 97.546875 18.6875 97.4375 18.6875 C 97.433594 18.6875 97.429688 18.6875 97.425781 18.6875 C 97.425781 18.6875 97.425781 18.6875 97.421875 18.6875 C 85.96875 18.789062 75.203125 23.304688 67.105469 31.402344 C 59.34375 39.160156 54.875 49.367188 54.421875 60.289062 C 47.699219 59.195312 40.003906 58.519531 31.21875 58.519531 L 31.21875 61.40625 C 57.988281 61.40625 74.347656 67.742188 83.355469 73.058594 C 86.757812 75.066406 89.394531 77.082031 91.390625 78.859375 C 82.734375 75.464844 65.09375 71.167969 31.21875 71.167969 L 31.21875 74.054688 C 58.992188 74.054688 75.351562 77.027344 84.191406 79.519531 C 87.867188 80.554688 90.582031 81.597656 92.53125 82.492188 L 31.21875 82.492188 L 31.21875 93.304688 L 164.445312 93.304688 L 164.445312 82.492188 L 103.144531 82.492188 Z M 88.417969 69.710938 C 88.296875 67.230469 88.230469 64.691406 88.230469 62.121094 C 88.230469 59.558594 88.296875 57.015625 88.417969 54.535156 C 91.476562 54.378906 94.632812 54.296875 97.816406 54.296875 C 101.007812 54.296875 104.15625 54.378906 107.214844 54.535156 C 107.339844 57.011719 107.40625 59.554688 107.40625 62.121094 C 107.40625 64.6875 107.339844 67.230469 107.214844 69.710938 C 104.15625 69.867188 101.003906 69.949219 97.816406 69.949219 C 94.632812 69.949219 91.480469 69.867188 88.417969 69.710938 Z M 87.828125 35.417969 C 86.800781 40.234375 86.070312 45.832031 85.675781 51.800781 C 80.421875 52.148438 75.476562 52.722656 71.1875 53.488281 C 71.9375 48.355469 73.335938 43.5625 75.359375 39.203125 C 79.207031 37.453125 83.386719 36.179688 87.828125 35.417969 Z M 97.816406 21.570312 C 99.390625 21.570312 101.882812 24.347656 104 31.988281 C 99.933594 31.582031 95.703125 31.582031 91.632812 31.988281 C 93.757812 24.351562 96.246094 21.570312 97.816406 21.570312 Z M 120.273438 39.203125 C 122.265625 43.507812 123.695312 48.402344 124.441406 53.488281 C 120.152344 52.722656 115.207031 52.148438 109.957031 51.800781 C 109.566406 45.828125 108.832031 40.234375 107.804688 35.417969 C 112.25 36.179688 116.429688 37.453125 120.273438 39.203125 Z M 90.882812 34.976562 C 95.421875 34.4375 100.210938 34.4375 104.75 34.976562 C 105.84375 39.785156 106.632812 45.496094 107.050781 51.636719 C 104.035156 51.492188 100.945312 51.410156 97.816406 51.410156 C 94.6875 51.410156 91.589844 51.492188 88.578125 51.636719 C 89 45.496094 89.789062 39.785156 90.882812 34.976562 Z M 113.105469 69.308594 C 112.117188 69.394531 111.117188 69.472656 110.117188 69.539062 C 110.230469 67.109375 110.289062 64.628906 110.289062 62.121094 C 110.289062 59.617188 110.230469 57.132812 110.117188 54.707031 C 115.492188 55.074219 120.515625 55.683594 124.796875 56.492188 C 124.972656 58.34375 125.066406 60.234375 125.066406 62.121094 C 125.066406 62.835938 125.050781 63.539062 125.027344 64.226562 C 120.273438 65.820312 116.328125 67.585938 113.105469 69.308594 Z M 127.753906 57.105469 C 133.496094 58.421875 136.371094 59.875 137.597656 60.949219 C 134.09375 61.636719 130.882812 62.433594 127.945312 63.308594 C 127.953125 62.917969 127.957031 62.523438 127.957031 62.125 C 127.957031 60.445312 127.886719 58.765625 127.753906 57.105469 Z M 127.441406 54.078125 C 126.859375 49.554688 125.800781 45.269531 124.277344 41.273438 C 131.464844 45.496094 136.257812 51.289062 137.816406 57.589844 C 135.511719 56.238281 132.042969 55.0625 127.441406 54.078125 Z M 107.09375 32.375 C 106.183594 28.828125 104.894531 25.050781 103.136719 22.367188 C 108.910156 24.097656 114.210938 28.605469 118.167969 35.207031 C 114.679688 33.910156 110.972656 32.960938 107.09375 32.375 Z M 88.582031 32.222656 L 88.542969 32.375 C 84.664062 32.960938 80.957031 33.910156 77.46875 35.207031 C 81.425781 28.605469 86.722656 24.097656 92.5 22.367188 C 90.769531 25.015625 89.492188 28.722656 88.582031 32.222656 Z M 68.191406 54.078125 C 63.59375 55.0625 60.128906 56.238281 57.820312 57.589844 C 59.382812 51.28125 64.167969 45.492188 71.355469 41.273438 C 69.835938 45.269531 68.777344 49.558594 68.191406 54.078125 Z M 67.878906 57.105469 C 67.746094 58.765625 67.675781 60.445312 67.675781 62.125 C 67.675781 62.519531 67.683594 62.910156 67.691406 63.300781 C 64.757812 62.429688 61.546875 61.628906 58.046875 60.945312 C 59.28125 59.867188 62.15625 58.417969 67.878906 57.105469 Z M 70.566406 62.121094 C 70.566406 60.234375 70.660156 58.34375 70.832031 56.492188 C 75.113281 55.683594 80.140625 55.074219 85.515625 54.707031 C 85.402344 57.132812 85.339844 59.617188 85.339844 62.121094 C 85.339844 64.628906 85.402344 67.113281 85.515625 69.539062 C 84.535156 69.472656 83.554688 69.394531 82.566406 69.3125 C 79.335938 67.578125 75.375 65.8125 70.601562 64.21875 C 70.582031 63.523438 70.566406 62.824219 70.566406 62.121094 Z M 88.582031 72.609375 C 91.597656 72.761719 94.691406 72.839844 97.820312 72.839844 C 100.949219 72.839844 104.046875 72.757812 107.058594 72.609375 C 107.050781 72.75 107.039062 72.890625 107.027344 73.03125 C 102.183594 76.410156 99.308594 79.5625 97.839844 81.4375 C 96.367188 79.554688 93.476562 76.394531 88.609375 73 C 88.597656 72.871094 88.589844 72.742188 88.582031 72.609375 Z M 135.289062 46.699219 C 132.113281 42.902344 127.753906 39.582031 122.433594 37.023438 C 119.898438 31.851562 116.636719 27.613281 112.917969 24.515625 C 123 28.613281 131.113281 36.664062 135.289062 46.699219 Z M 82.710938 24.527344 C 78.996094 27.621094 75.738281 31.859375 73.203125 37.027344 C 67.882812 39.585938 63.527344 42.902344 60.347656 46.703125 C 64.523438 36.667969 72.632812 28.621094 82.710938 24.527344 Z M 161.558594 90.414062 L 34.105469 90.414062 L 34.105469 85.375 L 161.558594 85.375 Z M 161.558594 90.414062 " fill-opacity="1" fill-rule="nonzero"/></g><g fill="#ffffff" fill-opacity="1"><g transform="translate(186.719146, 61.688983)"><g><path d="M 20.65625 -15.140625 C 21.820312 -14.453125 22.707031 -13.566406 23.3125 -12.484375 C 23.925781 -11.410156 24.234375 -10.164062 24.234375 -8.75 C 24.234375 -7.425781 23.910156 -6.1875 23.265625 -5.03125 C 22.628906 -3.882812 21.734375 -2.867188 20.578125 -1.984375 C 19.523438 -1.179688 18.328125 -0.566406 16.984375 -0.140625 C 15.640625 0.285156 14.222656 0.515625 12.734375 0.546875 C 11.242188 0.546875 9.820312 0.335938 8.46875 -0.078125 C 7.113281 -0.492188 5.910156 -1.117188 4.859375 -1.953125 C 3.273438 -3.140625 2.195312 -4.578125 1.625 -6.265625 L 7.421875 -8.953125 C 7.421875 -8.679688 7.515625 -8.335938 7.703125 -7.921875 C 7.898438 -7.503906 8.207031 -7.101562 8.625 -6.71875 C 9.039062 -6.332031 9.582031 -6 10.25 -5.71875 C 10.914062 -5.445312 11.726562 -5.3125 12.6875 -5.3125 C 13.46875 -5.3125 14.15625 -5.40625 14.75 -5.59375 C 15.34375 -5.789062 15.835938 -6.035156 16.234375 -6.328125 C 16.640625 -6.617188 16.945312 -6.945312 17.15625 -7.3125 C 17.363281 -7.6875 17.46875 -8.070312 17.46875 -8.46875 C 17.46875 -8.90625 17.320312 -9.316406 17.03125 -9.703125 C 16.738281 -10.085938 16.289062 -10.394531 15.6875 -10.625 C 14.570312 -11.007812 13.398438 -11.332031 12.171875 -11.59375 C 10.941406 -11.851562 9.742188 -12.179688 8.578125 -12.578125 C 7.421875 -12.984375 6.34375 -13.519531 5.34375 -14.1875 C 4.351562 -14.851562 3.566406 -15.78125 2.984375 -16.96875 C 2.460938 -18.019531 2.203125 -19.140625 2.203125 -20.328125 C 2.203125 -21.648438 2.507812 -22.929688 3.125 -24.171875 C 3.75 -25.421875 4.601562 -26.476562 5.6875 -27.34375 C 6.707031 -28.144531 7.851562 -28.757812 9.125 -29.1875 C 10.394531 -29.613281 11.738281 -29.828125 13.15625 -29.828125 C 14.5625 -29.828125 15.90625 -29.617188 17.1875 -29.203125 C 18.476562 -28.785156 19.632812 -28.175781 20.65625 -27.375 C 21.65625 -26.632812 22.445312 -25.765625 23.03125 -24.765625 L 18.296875 -21.53125 C 17.710938 -22.332031 16.984375 -22.972656 16.109375 -23.453125 C 15.242188 -23.941406 14.269531 -24.1875 13.1875 -24.1875 C 11.695312 -24.1875 10.539062 -23.851562 9.71875 -23.1875 C 8.90625 -22.519531 8.5 -21.648438 8.5 -20.578125 C 8.5 -20.078125 8.726562 -19.632812 9.1875 -19.25 C 9.644531 -18.863281 10.238281 -18.515625 10.96875 -18.203125 C 11.707031 -17.898438 12.53125 -17.628906 13.4375 -17.390625 C 14.351562 -17.160156 15.257812 -16.925781 16.15625 -16.6875 C 17.050781 -16.457031 17.898438 -16.21875 18.703125 -15.96875 C 19.503906 -15.71875 20.15625 -15.441406 20.65625 -15.140625 Z M 20.65625 -15.140625 "/></g></g></g><g fill="#ffffff" fill-opacity="1"><g transform="translate(212.479227, 61.688983)"><g><path d="M 13.28125 -12.03125 L 21.9375 0 L 15.09375 0 L 9.671875 -8.21875 L 7.640625 -6.015625 L 7.640625 0 L 1.90625 0 L 1.90625 -30.28125 L 7.640625 -30.28125 L 7.640625 -13.484375 L 14.3125 -20.578125 L 21.28125 -20.578125 Z M 13.28125 -12.03125 "/></g></g></g><g fill="#ffffff" fill-opacity="1"><g transform="translate(234.920782, 61.688983)"><g><path d="M 8.09375 0 L 2.359375 0 L 2.359375 -20.578125 L 8.09375 -20.578125 Z M 5.234375 -23.390625 C 4.347656 -23.390625 3.597656 -23.691406 2.984375 -24.296875 C 2.378906 -24.910156 2.078125 -25.660156 2.078125 -26.546875 C 2.078125 -27.429688 2.378906 -28.1875 2.984375 -28.8125 C 3.597656 -29.4375 4.347656 -29.75 5.234375 -29.75 C 6.109375 -29.75 6.847656 -29.4375 7.453125 -28.8125 C 8.066406 -28.1875 8.375 -27.429688 8.375 -26.546875 C 8.375 -25.660156 8.066406 -24.910156 7.453125 -24.296875 C 6.847656 -23.691406 6.109375 -23.390625 5.234375 -23.390625 Z M 5.234375 -23.390625 "/></g></g></g><g fill="#ffffff" fill-opacity="1"><g transform="translate(245.623059, 61.688983)"><g><path d="M 2.03125 -30.328125 L 7.75 -30.328125 L 7.75 0 L 2.03125 0 Z M 2.03125 -30.328125 "/></g></g></g><g fill="#ffffff" fill-opacity="1"><g transform="translate(255.246814, 61.688983)"><g><path d="M 2.03125 -30.328125 L 7.75 -30.328125 L 7.75 0 L 2.03125 0 Z M 2.03125 -30.328125 "/></g></g></g><g fill="#ffffff" fill-opacity="1"><g transform="translate(264.87057, 61.688983)"><g><path d="M 8.25 -5.6875 L 20.328125 -5.6875 L 20.328125 0 L 1.953125 0 L 1.953125 -29.40625 L 8.25 -29.40625 Z M 8.25 -5.6875 "/></g></g></g><g fill="#ffffff" fill-opacity="1"><g transform="translate(285.818799, 61.688983)"><g><path d="M 23.390625 -20.578125 L 23.390625 0 L 18.453125 0 L 17.875 -2.203125 C 17.070312 -1.117188 16.109375 -0.394531 14.984375 -0.03125 C 13.867188 0.320312 12.703125 0.5 11.484375 0.5 C 10.023438 0.5 8.675781 0.21875 7.4375 -0.34375 C 6.207031 -0.914062 5.132812 -1.691406 4.21875 -2.671875 C 3.3125 -3.648438 2.601562 -4.796875 2.09375 -6.109375 C 1.582031 -7.429688 1.328125 -8.835938 1.328125 -10.328125 C 1.328125 -11.816406 1.582031 -13.21875 2.09375 -14.53125 C 2.601562 -15.851562 3.3125 -17.003906 4.21875 -17.984375 C 5.132812 -18.960938 6.207031 -19.734375 7.4375 -20.296875 C 8.675781 -20.867188 10.023438 -21.15625 11.484375 -21.15625 C 12.816406 -21.15625 14.035156 -20.945312 15.140625 -20.53125 C 16.242188 -20.113281 17.15625 -19.453125 17.875 -18.546875 L 18.453125 -20.578125 Z M 17.671875 -10.25 C 17.671875 -11.320312 17.523438 -12.222656 17.234375 -12.953125 C 16.941406 -13.691406 16.550781 -14.289062 16.0625 -14.75 C 15.582031 -15.207031 15.019531 -15.535156 14.375 -15.734375 C 13.726562 -15.941406 13.03125 -16.046875 12.28125 -16.046875 C 11.53125 -16.046875 10.828125 -15.894531 10.171875 -15.59375 C 9.523438 -15.289062 8.953125 -14.882812 8.453125 -14.375 C 7.960938 -13.863281 7.578125 -13.253906 7.296875 -12.546875 C 7.023438 -11.835938 6.890625 -11.097656 6.890625 -10.328125 C 6.890625 -9.523438 7.023438 -8.773438 7.296875 -8.078125 C 7.578125 -7.390625 7.960938 -6.789062 8.453125 -6.28125 C 8.953125 -5.769531 9.523438 -5.363281 10.171875 -5.0625 C 10.828125 -4.757812 11.53125 -4.609375 12.28125 -4.609375 C 13.769531 -4.609375 15.03125 -5.070312 16.0625 -6 C 17.101562 -6.925781 17.640625 -8.34375 17.671875 -10.25 Z M 17.671875 -10.25 "/></g></g></g><g fill="#ffffff" fill-opacity="1"><g transform="translate(311.247029, 61.688983)"><g><path d="M 13.765625 -21.15625 C 15.210938 -21.15625 16.554688 -20.867188 17.796875 -20.296875 C 19.035156 -19.734375 20.113281 -18.960938 21.03125 -17.984375 C 21.945312 -17.003906 22.660156 -15.851562 23.171875 -14.53125 C 23.679688 -13.21875 23.9375 -11.816406 23.9375 -10.328125 C 23.9375 -8.835938 23.679688 -7.429688 23.171875 -6.109375 C 22.660156 -4.796875 21.945312 -3.648438 21.03125 -2.671875 C 20.113281 -1.691406 19.035156 -0.914062 17.796875 -0.34375 C 16.554688 0.21875 15.210938 0.5 13.765625 0.5 C 12.554688 0.5 11.390625 0.285156 10.265625 -0.140625 C 9.148438 -0.566406 8.273438 -1.113281 7.640625 -1.78125 L 6.796875 0 L 1.90625 0 L 1.90625 -30.28125 L 7.640625 -30.28125 L 7.640625 -18.921875 C 9.210938 -20.410156 11.253906 -21.15625 13.765625 -21.15625 Z M 12.984375 -4.609375 C 13.734375 -4.609375 14.429688 -4.757812 15.078125 -5.0625 C 15.722656 -5.363281 16.296875 -5.769531 16.796875 -6.28125 C 17.296875 -6.789062 17.679688 -7.390625 17.953125 -8.078125 C 18.234375 -8.773438 18.375 -9.523438 18.375 -10.328125 C 18.375 -11.097656 18.234375 -11.835938 17.953125 -12.546875 C 17.679688 -13.253906 17.296875 -13.863281 16.796875 -14.375 C 16.296875 -14.882812 15.722656 -15.289062 15.078125 -15.59375 C 14.429688 -15.894531 13.734375 -16.046875 12.984375 -16.046875 C 12.234375 -16.046875 11.535156 -15.941406 10.890625 -15.734375 C 10.242188 -15.535156 9.675781 -15.207031 9.1875 -14.75 C 8.707031 -14.289062 8.328125 -13.691406 8.046875 -12.953125 C 7.773438 -12.222656 7.640625 -11.320312 7.640625 -10.25 C 7.640625 -9.28125 7.773438 -8.441406 8.046875 -7.734375 C 8.328125 -7.023438 8.707031 -6.441406 9.1875 -5.984375 C 9.675781 -5.535156 10.242188 -5.191406 10.890625 -4.953125 C 11.535156 -4.722656 12.234375 -4.609375 12.984375 -4.609375 Z M 12.984375 -4.609375 "/></g></g></g><g fill="#ffffff" fill-opacity="1"><g transform="translate(196.911449, 83.872925)"><g><path d="M 8.703125 -9.75 L 8.703125 -3.4375 C 8.703125 -2.332031 8.363281 -1.457031 7.6875 -0.8125 C 7.019531 -0.175781 6.097656 0.140625 4.921875 0.140625 C 3.753906 0.140625 2.847656 -0.175781 2.203125 -0.8125 C 1.554688 -1.457031 1.234375 -2.34375 1.234375 -3.46875 L 1.234375 -9.75 L 2.375 -9.75 L 2.375 -3.390625 C 2.375 -2.578125 2.59375 -1.953125 3.03125 -1.515625 C 3.476562 -1.078125 4.132812 -0.859375 5 -0.859375 C 5.820312 -0.859375 6.453125 -1.078125 6.890625 -1.515625 C 7.335938 -1.953125 7.5625 -2.582031 7.5625 -3.40625 L 7.5625 -9.75 Z M 8.703125 -9.75 "/></g></g></g><g fill="#ffffff" fill-opacity="1"><g transform="translate(208.795075, 83.872925)"><g><path d="M 6.171875 0 L 6.171875 -4.734375 C 6.171875 -5.328125 6.035156 -5.769531 5.765625 -6.0625 C 5.492188 -6.351562 5.070312 -6.5 4.5 -6.5 C 3.726562 -6.5 3.164062 -6.289062 2.8125 -5.875 C 2.457031 -5.46875 2.28125 -4.785156 2.28125 -3.828125 L 2.28125 0 L 1.171875 0 L 1.171875 -7.3125 L 2.078125 -7.3125 L 2.25 -6.3125 L 2.3125 -6.3125 C 2.53125 -6.664062 2.84375 -6.941406 3.25 -7.140625 C 3.664062 -7.335938 4.125 -7.4375 4.625 -7.4375 C 5.507812 -7.4375 6.171875 -7.222656 6.609375 -6.796875 C 7.054688 -6.378906 7.28125 -5.703125 7.28125 -4.765625 L 7.28125 0 Z M 6.171875 0 "/></g></g></g><g fill="#ffffff" fill-opacity="1"><g transform="translate(219.118245, 83.872925)"><g><path d="M 2.28125 0 L 1.171875 0 L 1.171875 -10.375 L 2.28125 -10.375 Z M 2.28125 0 "/></g></g></g><g fill="#ffffff" fill-opacity="1"><g transform="translate(224.513308, 83.872925)"><g><path d="M 4.265625 0.140625 C 3.179688 0.140625 2.328125 -0.1875 1.703125 -0.84375 C 1.078125 -1.507812 0.765625 -2.425781 0.765625 -3.59375 C 0.765625 -4.769531 1.050781 -5.703125 1.625 -6.390625 C 2.207031 -7.085938 2.988281 -7.4375 3.96875 -7.4375 C 4.882812 -7.4375 5.609375 -7.132812 6.140625 -6.53125 C 6.679688 -5.9375 6.953125 -5.144531 6.953125 -4.15625 L 6.953125 -3.453125 L 1.90625 -3.453125 C 1.9375 -2.597656 2.15625 -1.945312 2.5625 -1.5 C 2.976562 -1.050781 3.554688 -0.828125 4.296875 -0.828125 C 5.085938 -0.828125 5.867188 -0.992188 6.640625 -1.328125 L 6.640625 -0.34375 C 6.242188 -0.175781 5.867188 -0.0546875 5.515625 0.015625 C 5.171875 0.0976562 4.753906 0.140625 4.265625 0.140625 Z M 3.953125 -6.515625 C 3.367188 -6.515625 2.898438 -6.320312 2.546875 -5.9375 C 2.203125 -5.5625 2 -5.035156 1.9375 -4.359375 L 5.765625 -4.359375 C 5.765625 -5.054688 5.609375 -5.585938 5.296875 -5.953125 C 4.984375 -6.328125 4.535156 -6.515625 3.953125 -6.515625 Z M 3.953125 -6.515625 "/></g></g></g><g fill="#ffffff" fill-opacity="1"><g transform="translate(234.116269, 83.872925)"><g><path d="M 5.671875 0 L 5.453125 -1.046875 L 5.390625 -1.046875 C 5.023438 -0.585938 4.660156 -0.273438 4.296875 -0.109375 C 3.941406 0.0546875 3.492188 0.140625 2.953125 0.140625 C 2.222656 0.140625 1.648438 -0.046875 1.234375 -0.421875 C 0.828125 -0.796875 0.625 -1.328125 0.625 -2.015625 C 0.625 -3.492188 1.804688 -4.269531 4.171875 -4.34375 L 5.40625 -4.375 L 5.40625 -4.828125 C 5.40625 -5.398438 5.28125 -5.820312 5.03125 -6.09375 C 4.789062 -6.375 4.398438 -6.515625 3.859375 -6.515625 C 3.242188 -6.515625 2.550781 -6.328125 1.78125 -5.953125 L 1.453125 -6.796875 C 1.804688 -6.992188 2.195312 -7.144531 2.625 -7.25 C 3.0625 -7.363281 3.492188 -7.421875 3.921875 -7.421875 C 4.796875 -7.421875 5.441406 -7.226562 5.859375 -6.84375 C 6.273438 -6.457031 6.484375 -5.835938 6.484375 -4.984375 L 6.484375 0 Z M 3.171875 -0.78125 C 3.859375 -0.78125 4.394531 -0.96875 4.78125 -1.34375 C 5.175781 -1.71875 5.375 -2.25 5.375 -2.9375 L 5.375 -3.59375 L 4.28125 -3.546875 C 3.394531 -3.515625 2.753906 -3.378906 2.359375 -3.140625 C 1.972656 -2.898438 1.78125 -2.519531 1.78125 -2 C 1.78125 -1.601562 1.898438 -1.300781 2.140625 -1.09375 C 2.390625 -0.882812 2.734375 -0.78125 3.171875 -0.78125 Z M 3.171875 -0.78125 "/></g></g></g><g fill="#ffffff" fill-opacity="1"><g transform="translate(243.652544, 83.872925)"><g><path d="M 5.890625 -2 C 5.890625 -1.3125 5.632812 -0.78125 5.125 -0.40625 C 4.625 -0.0390625 3.914062 0.140625 3 0.140625 C 2.03125 0.140625 1.273438 -0.015625 0.734375 -0.328125 L 0.734375 -1.359375 C 1.078125 -1.179688 1.445312 -1.039062 1.84375 -0.9375 C 2.25 -0.832031 2.640625 -0.78125 3.015625 -0.78125 C 3.597656 -0.78125 4.046875 -0.867188 4.359375 -1.046875 C 4.671875 -1.234375 4.828125 -1.519531 4.828125 -1.90625 C 4.828125 -2.1875 4.703125 -2.425781 4.453125 -2.625 C 4.203125 -2.832031 3.71875 -3.070312 3 -3.34375 C 2.320312 -3.601562 1.835938 -3.828125 1.546875 -4.015625 C 1.265625 -4.203125 1.050781 -4.414062 0.90625 -4.65625 C 0.769531 -4.894531 0.703125 -5.179688 0.703125 -5.515625 C 0.703125 -6.109375 0.941406 -6.578125 1.421875 -6.921875 C 1.910156 -7.265625 2.578125 -7.4375 3.421875 -7.4375 C 4.210938 -7.4375 4.984375 -7.28125 5.734375 -6.96875 L 5.34375 -6.0625 C 4.601562 -6.363281 3.9375 -6.515625 3.34375 -6.515625 C 2.820312 -6.515625 2.425781 -6.429688 2.15625 -6.265625 C 1.894531 -6.097656 1.765625 -5.875 1.765625 -5.59375 C 1.765625 -5.394531 1.8125 -5.222656 1.90625 -5.078125 C 2.007812 -4.941406 2.171875 -4.8125 2.390625 -4.6875 C 2.617188 -4.5625 3.046875 -4.382812 3.671875 -4.15625 C 4.535156 -3.84375 5.117188 -3.523438 5.421875 -3.203125 C 5.734375 -2.878906 5.890625 -2.476562 5.890625 -2 Z M 5.890625 -2 "/></g></g></g><g fill="#ffffff" fill-opacity="1"><g transform="translate(252.108503, 83.872925)"><g><path d="M 6.171875 0 L 6.171875 -4.734375 C 6.171875 -5.328125 6.035156 -5.769531 5.765625 -6.0625 C 5.492188 -6.351562 5.070312 -6.5 4.5 -6.5 C 3.726562 -6.5 3.164062 -6.289062 2.8125 -5.875 C 2.457031 -5.457031 2.28125 -4.773438 2.28125 -3.828125 L 2.28125 0 L 1.171875 0 L 1.171875 -10.375 L 2.28125 -10.375 L 2.28125 -7.234375 C 2.28125 -6.859375 2.265625 -6.546875 2.234375 -6.296875 L 2.296875 -6.296875 C 2.515625 -6.648438 2.820312 -6.925781 3.21875 -7.125 C 3.625 -7.320312 4.082031 -7.421875 4.59375 -7.421875 C 5.488281 -7.421875 6.160156 -7.207031 6.609375 -6.78125 C 7.054688 -6.363281 7.28125 -5.691406 7.28125 -4.765625 L 7.28125 0 Z M 6.171875 0 "/></g></g></g><g fill="#ffffff" fill-opacity="1"><g transform="translate(262.431671, 83.872925)"><g/></g></g><g fill="#ffffff" fill-opacity="1"><g transform="translate(267.920097, 83.872925)"><g><path d="M 4.34375 0 L 3.203125 0 L 3.203125 -8.734375 L 0.125 -8.734375 L 0.125 -9.75 L 7.421875 -9.75 L 7.421875 -8.734375 L 4.34375 -8.734375 Z M 4.34375 0 "/></g></g></g><g fill="#ffffff" fill-opacity="1"><g transform="translate(277.41636, 83.872925)"><g><path d="M 5.671875 0 L 5.453125 -1.046875 L 5.390625 -1.046875 C 5.023438 -0.585938 4.660156 -0.273438 4.296875 -0.109375 C 3.941406 0.0546875 3.492188 0.140625 2.953125 0.140625 C 2.222656 0.140625 1.648438 -0.046875 1.234375 -0.421875 C 0.828125 -0.796875 0.625 -1.328125 0.625 -2.015625 C 0.625 -3.492188 1.804688 -4.269531 4.171875 -4.34375 L 5.40625 -4.375 L 5.40625 -4.828125 C 5.40625 -5.398438 5.28125 -5.820312 5.03125 -6.09375 C 4.789062 -6.375 4.398438 -6.515625 3.859375 -6.515625 C 3.242188 -6.515625 2.550781 -6.328125 1.78125 -5.953125 L 1.453125 -6.796875 C 1.804688 -6.992188 2.195312 -7.144531 2.625 -7.25 C 3.0625 -7.363281 3.492188 -7.421875 3.921875 -7.421875 C 4.796875 -7.421875 5.441406 -7.226562 5.859375 -6.84375 C 6.273438 -6.457031 6.484375 -5.835938 6.484375 -4.984375 L 6.484375 0 Z M 3.171875 -0.78125 C 3.859375 -0.78125 4.394531 -0.96875 4.78125 -1.34375 C 5.175781 -1.71875 5.375 -2.25 5.375 -2.9375 L 5.375 -3.59375 L 4.28125 -3.546875 C 3.394531 -3.515625 2.753906 -3.378906 2.359375 -3.140625 C 1.972656 -2.898438 1.78125 -2.519531 1.78125 -2 C 1.78125 -1.601562 1.898438 -1.300781 2.140625 -1.09375 C 2.390625 -0.882812 2.734375 -0.78125 3.171875 -0.78125 Z M 3.171875 -0.78125 "/></g></g></g><g fill="#ffffff" fill-opacity="1"><g transform="translate(286.952634, 83.872925)"><g><path d="M 2.28125 0 L 1.171875 0 L 1.171875 -10.375 L 2.28125 -10.375 Z M 2.28125 0 "/></g></g></g><g fill="#ffffff" fill-opacity="1"><g transform="translate(292.3477, 83.872925)"><g><path d="M 4.265625 0.140625 C 3.179688 0.140625 2.328125 -0.1875 1.703125 -0.84375 C 1.078125 -1.507812 0.765625 -2.425781 0.765625 -3.59375 C 0.765625 -4.769531 1.050781 -5.703125 1.625 -6.390625 C 2.207031 -7.085938 2.988281 -7.4375 3.96875 -7.4375 C 4.882812 -7.4375 5.609375 -7.132812 6.140625 -6.53125 C 6.679688 -5.9375 6.953125 -5.144531 6.953125 -4.15625 L 6.953125 -3.453125 L 1.90625 -3.453125 C 1.9375 -2.597656 2.15625 -1.945312 2.5625 -1.5 C 2.976562 -1.050781 3.554688 -0.828125 4.296875 -0.828125 C 5.085938 -0.828125 5.867188 -0.992188 6.640625 -1.328125 L 6.640625 -0.34375 C 6.242188 -0.175781 5.867188 -0.0546875 5.515625 0.015625 C 5.171875 0.0976562 4.753906 0.140625 4.265625 0.140625 Z M 3.953125 -6.515625 C 3.367188 -6.515625 2.898438 -6.320312 2.546875 -5.9375 C 2.203125 -5.5625 2 -5.035156 1.9375 -4.359375 L 5.765625 -4.359375 C 5.765625 -5.054688 5.609375 -5.585938 5.296875 -5.953125 C 4.984375 -6.328125 4.535156 -6.515625 3.953125 -6.515625 Z M 3.953125 -6.515625 "/></g></g></g><g fill="#ffffff" fill-opacity="1"><g transform="translate(301.950661, 83.872925)"><g><path d="M 6.171875 0 L 6.171875 -4.734375 C 6.171875 -5.328125 6.035156 -5.769531 5.765625 -6.0625 C 5.492188 -6.351562 5.070312 -6.5 4.5 -6.5 C 3.726562 -6.5 3.164062 -6.289062 2.8125 -5.875 C 2.457031 -5.46875 2.28125 -4.785156 2.28125 -3.828125 L 2.28125 0 L 1.171875 0 L 1.171875 -7.3125 L 2.078125 -7.3125 L 2.25 -6.3125 L 2.3125 -6.3125 C 2.53125 -6.664062 2.84375 -6.941406 3.25 -7.140625 C 3.664062 -7.335938 4.125 -7.4375 4.625 -7.4375 C 5.507812 -7.4375 6.171875 -7.222656 6.609375 -6.796875 C 7.054688 -6.378906 7.28125 -5.703125 7.28125 -4.765625 L 7.28125 0 Z M 6.171875 0 "/></g></g></g><g fill="#ffffff" fill-opacity="1"><g transform="translate(312.273832, 83.872925)"><g><path d="M 3.53125 -0.78125 C 3.726562 -0.78125 3.914062 -0.789062 4.09375 -0.8125 C 4.28125 -0.84375 4.425781 -0.875 4.53125 -0.90625 L 4.53125 -0.0625 C 4.414062 -0.0078125 4.238281 0.0351562 4 0.078125 C 3.769531 0.117188 3.5625 0.140625 3.375 0.140625 C 1.957031 0.140625 1.25 -0.601562 1.25 -2.09375 L 1.25 -6.453125 L 0.203125 -6.453125 L 0.203125 -6.984375 L 1.25 -7.4375 L 1.71875 -9 L 2.359375 -9 L 2.359375 -7.3125 L 4.484375 -7.3125 L 4.484375 -6.453125 L 2.359375 -6.453125 L 2.359375 -2.140625 C 2.359375 -1.703125 2.460938 -1.363281 2.671875 -1.125 C 2.878906 -0.894531 3.164062 -0.78125 3.53125 -0.78125 Z M 3.53125 -0.78125 "/></g></g></g><g fill="#ffffff" fill-opacity="1"><g transform="translate(319.035956, 83.872925)"><g><path d="M 5.890625 -2 C 5.890625 -1.3125 5.632812 -0.78125 5.125 -0.40625 C 4.625 -0.0390625 3.914062 0.140625 3 0.140625 C 2.03125 0.140625 1.273438 -0.015625 0.734375 -0.328125 L 0.734375 -1.359375 C 1.078125 -1.179688 1.445312 -1.039062 1.84375 -0.9375 C 2.25 -0.832031 2.640625 -0.78125 3.015625 -0.78125 C 3.597656 -0.78125 4.046875 -0.867188 4.359375 -1.046875 C 4.671875 -1.234375 4.828125 -1.519531 4.828125 -1.90625 C 4.828125 -2.1875 4.703125 -2.425781 4.453125 -2.625 C 4.203125 -2.832031 3.71875 -3.070312 3 -3.34375 C 2.320312 -3.601562 1.835938 -3.828125 1.546875 -4.015625 C 1.265625 -4.203125 1.050781 -4.414062 0.90625 -4.65625 C 0.769531 -4.894531 0.703125 -5.179688 0.703125 -5.515625 C 0.703125 -6.109375 0.941406 -6.578125 1.421875 -6.921875 C 1.910156 -7.265625 2.578125 -7.4375 3.421875 -7.4375 C 4.210938 -7.4375 4.984375 -7.28125 5.734375 -6.96875 L 5.34375 -6.0625 C 4.601562 -6.363281 3.9375 -6.515625 3.34375 -6.515625 C 2.820312 -6.515625 2.425781 -6.429688 2.15625 -6.265625 C 1.894531 -6.097656 1.765625 -5.875 1.765625 -5.59375 C 1.765625 -5.394531 1.8125 -5.222656 1.90625 -5.078125 C 2.007812 -4.941406 2.171875 -4.8125 2.390625 -4.6875 C 2.617188 -4.5625 3.046875 -4.382812 3.671875 -4.15625 C 4.535156 -3.84375 5.117188 -3.523438 5.421875 -3.203125 C 5.734375 -2.878906 5.890625 -2.476562 5.890625 -2 Z M 5.890625 -2 "/></g></g></g></svg>