<svg xmlns="http://www.w3.org/2000/svg" xmlns:xlink="http://www.w3.org/1999/xlink" width="500" zoomAndPan="magnify" viewBox="0 0 375 374.999991" height="500" preserveAspectRatio="xMidYMid meet" version="1.0"><defs><clipPath id="4d8dfec1d6"><path d="M 16.132812 16.132812 L 358.882812 16.132812 L 358.882812 358.882812 L 16.132812 358.882812 Z M 16.132812 16.132812 " clip-rule="nonzero"/></clipPath></defs><g clip-path="url(#4d8dfec1d6)"><path fill="#bfbdbc" d="M 358.878906 187.507812 C 358.878906 282.152344 282.15625 358.878906 187.507812 358.878906 C 92.863281 358.878906 16.136719 282.152344 16.136719 187.507812 C 16.136719 92.863281 92.863281 16.136719 187.507812 16.136719 C 282.15625 16.136719 358.878906 92.863281 358.878906 187.507812 " fill-opacity="1" fill-rule="nonzero"/></g><path fill="#ffffff" d="M 248.382812 133.335938 C 248.382812 167.074219 221.03125 194.425781 187.289062 194.425781 C 153.546875 194.425781 126.195312 167.074219 126.195312 133.335938 C 126.195312 99.589844 153.546875 72.238281 187.289062 72.238281 C 221.03125 72.238281 248.382812 99.589844 248.382812 133.335938 " fill-opacity="1" fill-rule="nonzero"/><path fill="#ffffff" d="M 187.289062 350.746094 C 230.519531 350.746094 270.007812 334.726562 300.15625 308.316406 C 290.796875 247.203125 263.238281 204.792969 187.289062 204.792969 C 113.46875 204.792969 84.898438 247.382812 74.859375 308.707031 C 104.953125 334.886719 144.269531 350.746094 187.289062 350.746094 " fill-opacity="1" fill-rule="nonzero"/></svg>