<svg xmlns="http://www.w3.org/2000/svg" xmlns:xlink="http://www.w3.org/1999/xlink" width="500" zoomAndPan="magnify" viewBox="0 0 375 374.999991" height="500" preserveAspectRatio="xMidYMid meet" version="1.0"><defs><g/><clipPath id="97e5b3c307"><path d="M 57.59375 145.503906 L 164.84375 145.503906 L 164.84375 205.503906 L 57.59375 205.503906 Z M 57.59375 145.503906 " clip-rule="nonzero"/></clipPath></defs><rect x="-37.5" width="450" fill="#ffffff" y="-37.499999" height="449.999989" fill-opacity="1"/><rect x="-37.5" width="450" fill="#000000" y="-37.499999" height="449.999989" fill-opacity="1"/><g clip-path="url(#97e5b3c307)"><path fill="#ffffff" d="M 115.496094 196.859375 C 117.066406 196.140625 119.25 195.304688 122.207031 194.464844 C 129.320312 192.460938 142.492188 190.070312 164.84375 190.070312 L 164.84375 187.742188 C 137.578125 187.742188 123.378906 191.207031 116.417969 193.9375 C 118.019531 192.507812 120.140625 190.886719 122.882812 189.269531 C 130.136719 184.992188 143.300781 179.894531 164.84375 179.894531 L 164.84375 177.570312 C 157.761719 177.570312 151.558594 178.113281 146.140625 179 C 145.777344 170.210938 142.183594 161.992188 135.933594 155.746094 C 129.40625 149.222656 120.738281 145.585938 111.535156 145.507812 C 111.433594 145.507812 111.324219 145.507812 111.222656 145.503906 C 111.214844 145.503906 111.210938 145.503906 111.203125 145.503906 C 111.097656 145.503906 110.992188 145.507812 110.902344 145.507812 C 110.902344 145.507812 110.894531 145.507812 110.894531 145.507812 C 110.894531 145.507812 110.894531 145.507812 110.890625 145.507812 C 101.675781 145.585938 93.007812 149.222656 86.488281 155.742188 C 80.242188 161.984375 76.644531 170.203125 76.28125 178.992188 C 70.871094 178.109375 64.675781 177.566406 57.605469 177.566406 L 57.605469 179.890625 C 79.152344 179.890625 92.320312 184.992188 99.570312 189.269531 C 102.308594 190.882812 104.429688 192.507812 106.035156 193.9375 C 99.070312 191.207031 84.871094 187.746094 57.605469 187.746094 L 57.605469 190.070312 C 79.957031 190.070312 93.128906 192.460938 100.242188 194.46875 C 103.203125 195.304688 105.382812 196.144531 106.953125 196.859375 L 57.605469 196.859375 L 57.605469 205.566406 L 164.835938 205.566406 L 164.835938 196.859375 Z M 103.644531 186.574219 C 103.546875 184.578125 103.492188 182.535156 103.492188 180.46875 C 103.492188 178.402344 103.546875 176.355469 103.644531 174.359375 C 106.105469 174.234375 108.644531 174.167969 111.210938 174.167969 C 113.777344 174.167969 116.3125 174.234375 118.773438 174.359375 C 118.871094 176.355469 118.925781 178.402344 118.925781 180.46875 C 118.925781 182.53125 118.871094 184.578125 118.773438 186.574219 C 116.308594 186.699219 113.773438 186.765625 111.210938 186.765625 C 108.644531 186.765625 106.109375 186.699219 103.644531 186.574219 Z M 103.167969 158.972656 C 102.34375 162.847656 101.753906 167.355469 101.4375 172.160156 C 97.207031 172.4375 93.226562 172.902344 89.777344 173.519531 C 90.378906 169.386719 91.503906 165.527344 93.132812 162.019531 C 96.230469 160.609375 99.59375 159.585938 103.167969 158.972656 Z M 111.210938 147.828125 C 112.476562 147.828125 114.480469 150.0625 116.183594 156.210938 C 112.910156 155.886719 109.507812 155.886719 106.234375 156.210938 C 107.941406 150.066406 109.941406 147.828125 111.210938 147.828125 Z M 129.28125 162.019531 C 130.886719 165.484375 132.035156 169.421875 132.640625 173.519531 C 129.1875 172.902344 125.207031 172.4375 120.980469 172.160156 C 120.664062 167.351562 120.074219 162.847656 119.25 158.972656 C 122.824219 159.585938 126.191406 160.609375 129.28125 162.019531 Z M 105.628906 158.617188 C 109.28125 158.183594 113.136719 158.183594 116.789062 158.617188 C 117.671875 162.488281 118.304688 167.085938 118.640625 172.027344 C 116.214844 171.910156 113.726562 171.84375 111.207031 171.84375 C 108.691406 171.84375 106.199219 171.910156 103.773438 172.027344 C 104.113281 167.085938 104.746094 162.488281 105.628906 158.617188 Z M 123.515625 186.25 C 122.71875 186.320312 121.914062 186.382812 121.109375 186.433594 C 121.199219 184.480469 121.246094 182.484375 121.246094 180.46875 C 121.246094 178.449219 121.199219 176.449219 121.109375 174.496094 C 125.433594 174.792969 129.480469 175.285156 132.925781 175.933594 C 133.066406 177.425781 133.140625 178.945312 133.140625 180.46875 C 133.140625 181.042969 133.128906 181.605469 133.109375 182.160156 C 129.285156 183.441406 126.109375 184.863281 123.515625 186.25 Z M 135.304688 176.429688 C 139.925781 177.488281 142.238281 178.660156 143.226562 179.519531 C 140.40625 180.074219 137.824219 180.71875 135.457031 181.421875 C 135.464844 181.105469 135.46875 180.789062 135.46875 180.46875 C 135.46875 179.117188 135.414062 177.765625 135.304688 176.429688 Z M 135.050781 173.992188 C 134.585938 170.351562 133.730469 166.902344 132.507812 163.6875 C 138.292969 167.085938 142.148438 171.746094 143.402344 176.820312 C 141.546875 175.730469 138.757812 174.785156 135.050781 173.992188 Z M 118.675781 156.523438 C 117.941406 153.671875 116.90625 150.628906 115.492188 148.46875 C 120.136719 149.863281 124.402344 153.488281 127.585938 158.804688 C 124.78125 157.757812 121.796875 156.996094 118.675781 156.523438 Z M 103.777344 156.402344 L 103.746094 156.523438 C 100.625 156.996094 97.636719 157.757812 94.832031 158.804688 C 98.015625 153.492188 102.28125 149.863281 106.929688 148.46875 C 105.539062 150.597656 104.507812 153.585938 103.777344 156.402344 Z M 87.367188 173.992188 C 83.664062 174.785156 80.875 175.730469 79.015625 176.820312 C 80.273438 171.742188 84.128906 167.082031 89.910156 163.6875 C 88.6875 166.902344 87.835938 170.355469 87.367188 173.992188 Z M 87.113281 176.429688 C 87.003906 177.765625 86.949219 179.117188 86.949219 180.46875 C 86.949219 180.785156 86.957031 181.101562 86.960938 181.414062 C 84.597656 180.714844 82.015625 180.070312 79.199219 179.519531 C 80.191406 178.652344 82.507812 177.484375 87.113281 176.429688 Z M 89.273438 180.46875 C 89.273438 178.945312 89.351562 177.425781 89.488281 175.933594 C 92.933594 175.285156 96.980469 174.792969 101.304688 174.496094 C 101.214844 176.449219 101.167969 178.453125 101.167969 180.46875 C 101.167969 182.484375 101.214844 184.484375 101.304688 186.433594 C 100.519531 186.382812 99.726562 186.320312 98.933594 186.253906 C 96.335938 184.859375 93.148438 183.4375 89.304688 182.152344 C 89.289062 181.59375 89.273438 181.03125 89.273438 180.46875 Z M 103.777344 188.910156 C 106.203125 189.027344 108.695312 189.09375 111.210938 189.09375 C 113.730469 189.09375 116.222656 189.027344 118.648438 188.910156 C 118.640625 189.023438 118.628906 189.132812 118.621094 189.246094 C 114.726562 191.96875 112.410156 194.503906 111.226562 196.011719 C 110.039062 194.496094 107.714844 191.953125 103.796875 189.222656 C 103.789062 189.117188 103.78125 189.011719 103.777344 188.910156 Z M 141.371094 168.054688 C 138.8125 164.996094 135.304688 162.324219 131.023438 160.265625 C 128.980469 156.101562 126.355469 152.691406 123.363281 150.199219 C 131.476562 153.496094 138.007812 159.976562 141.371094 168.054688 Z M 99.050781 150.210938 C 96.058594 152.699219 93.4375 156.109375 91.394531 160.269531 C 87.117188 162.328125 83.609375 164.996094 81.050781 168.054688 C 84.414062 159.980469 90.9375 153.503906 99.050781 150.210938 Z M 162.511719 203.238281 L 59.929688 203.238281 L 59.929688 199.183594 L 162.511719 199.183594 Z M 162.511719 203.238281 " fill-opacity="1" fill-rule="nonzero"/></g><g fill="#ffffff" fill-opacity="1"><g transform="translate(173.545598, 182.670077)"><g><path d="M 16.625 -12.1875 C 17.5625 -11.632812 18.273438 -10.921875 18.765625 -10.046875 C 19.253906 -9.179688 19.5 -8.179688 19.5 -7.046875 C 19.5 -5.972656 19.242188 -4.972656 18.734375 -4.046875 C 18.222656 -3.128906 17.5 -2.316406 16.5625 -1.609375 C 15.71875 -0.960938 14.753906 -0.460938 13.671875 -0.109375 C 12.585938 0.234375 11.445312 0.414062 10.25 0.4375 C 9.050781 0.4375 7.90625 0.269531 6.8125 -0.0625 C 5.71875 -0.394531 4.75 -0.894531 3.90625 -1.5625 C 2.632812 -2.519531 1.765625 -3.679688 1.296875 -5.046875 L 5.984375 -7.21875 C 5.984375 -6.988281 6.054688 -6.707031 6.203125 -6.375 C 6.359375 -6.039062 6.601562 -5.71875 6.9375 -5.40625 C 7.28125 -5.09375 7.71875 -4.828125 8.25 -4.609375 C 8.78125 -4.390625 9.4375 -4.28125 10.21875 -4.28125 C 10.84375 -4.28125 11.394531 -4.351562 11.875 -4.5 C 12.351562 -4.65625 12.753906 -4.847656 13.078125 -5.078125 C 13.398438 -5.316406 13.644531 -5.585938 13.8125 -5.890625 C 13.976562 -6.191406 14.0625 -6.5 14.0625 -6.8125 C 14.0625 -7.164062 13.941406 -7.5 13.703125 -7.8125 C 13.472656 -8.125 13.113281 -8.367188 12.625 -8.546875 C 11.726562 -8.859375 10.785156 -9.117188 9.796875 -9.328125 C 8.804688 -9.546875 7.84375 -9.816406 6.90625 -10.140625 C 5.976562 -10.460938 5.113281 -10.890625 4.3125 -11.421875 C 3.507812 -11.953125 2.875 -12.695312 2.40625 -13.65625 C 1.976562 -14.5 1.765625 -15.398438 1.765625 -16.359375 C 1.765625 -17.429688 2.015625 -18.46875 2.515625 -19.46875 C 3.015625 -20.46875 3.703125 -21.3125 4.578125 -22 C 5.398438 -22.644531 6.320312 -23.140625 7.34375 -23.484375 C 8.363281 -23.828125 9.441406 -24 10.578125 -24 C 11.710938 -24 12.796875 -23.832031 13.828125 -23.5 C 14.867188 -23.164062 15.800781 -22.675781 16.625 -22.03125 C 17.425781 -21.4375 18.0625 -20.738281 18.53125 -19.9375 L 14.71875 -17.328125 C 14.257812 -17.972656 13.675781 -18.488281 12.96875 -18.875 C 12.269531 -19.269531 11.488281 -19.46875 10.625 -19.46875 C 9.414062 -19.46875 8.484375 -19.195312 7.828125 -18.65625 C 7.171875 -18.125 6.84375 -17.425781 6.84375 -16.5625 C 6.84375 -16.15625 7.023438 -15.796875 7.390625 -15.484375 C 7.765625 -15.179688 8.242188 -14.90625 8.828125 -14.65625 C 9.421875 -14.414062 10.082031 -14.195312 10.8125 -14 C 11.550781 -13.8125 12.28125 -13.625 13 -13.4375 C 13.726562 -13.25 14.414062 -13.054688 15.0625 -12.859375 C 15.707031 -12.660156 16.226562 -12.4375 16.625 -12.1875 Z M 16.625 -12.1875 "/></g></g></g><g fill="#ffffff" fill-opacity="1"><g transform="translate(194.27877, 182.670077)"><g><path d="M 10.6875 -9.6875 L 17.65625 0 L 12.15625 0 L 7.78125 -6.609375 L 6.140625 -4.84375 L 6.140625 0 L 1.53125 0 L 1.53125 -24.375 L 6.140625 -24.375 L 6.140625 -10.859375 L 11.515625 -16.5625 L 17.125 -16.5625 Z M 10.6875 -9.6875 "/></g></g></g><g fill="#ffffff" fill-opacity="1"><g transform="translate(212.341006, 182.670077)"><g><path d="M 6.515625 0 L 1.90625 0 L 1.90625 -16.5625 L 6.515625 -16.5625 Z M 4.203125 -18.828125 C 3.492188 -18.828125 2.894531 -19.070312 2.40625 -19.5625 C 1.914062 -20.050781 1.671875 -20.65625 1.671875 -21.375 C 1.671875 -22.082031 1.914062 -22.6875 2.40625 -23.1875 C 2.894531 -23.6875 3.492188 -23.9375 4.203125 -23.9375 C 4.921875 -23.9375 5.523438 -23.6875 6.015625 -23.1875 C 6.503906 -22.6875 6.75 -22.082031 6.75 -21.375 C 6.75 -20.65625 6.503906 -20.050781 6.015625 -19.5625 C 5.523438 -19.070312 4.921875 -18.828125 4.203125 -18.828125 Z M 4.203125 -18.828125 "/></g></g></g><g fill="#ffffff" fill-opacity="1"><g transform="translate(220.954805, 182.670077)"><g><path d="M 1.640625 -24.40625 L 6.25 -24.40625 L 6.25 0 L 1.640625 0 Z M 1.640625 -24.40625 "/></g></g></g><g fill="#ffffff" fill-opacity="1"><g transform="translate(228.700549, 182.670077)"><g><path d="M 1.640625 -24.40625 L 6.25 -24.40625 L 6.25 0 L 1.640625 0 Z M 1.640625 -24.40625 "/></g></g></g><g fill="#ffffff" fill-opacity="1"><g transform="translate(236.446293, 182.670077)"><g><path d="M 6.640625 -4.578125 L 16.359375 -4.578125 L 16.359375 0 L 1.5625 0 L 1.5625 -23.671875 L 6.640625 -23.671875 Z M 6.640625 -4.578125 "/></g></g></g><g fill="#ffffff" fill-opacity="1"><g transform="translate(253.306615, 182.670077)"><g><path d="M 18.828125 -16.5625 L 18.828125 0 L 14.859375 0 L 14.390625 -1.765625 C 13.742188 -0.898438 12.96875 -0.320312 12.0625 -0.03125 C 11.164062 0.257812 10.226562 0.40625 9.25 0.40625 C 8.070312 0.40625 6.984375 0.175781 5.984375 -0.28125 C 4.992188 -0.738281 4.128906 -1.363281 3.390625 -2.15625 C 2.660156 -2.945312 2.085938 -3.867188 1.671875 -4.921875 C 1.265625 -5.984375 1.0625 -7.113281 1.0625 -8.3125 C 1.0625 -9.519531 1.265625 -10.648438 1.671875 -11.703125 C 2.085938 -12.765625 2.660156 -13.6875 3.390625 -14.46875 C 4.128906 -15.257812 4.992188 -15.882812 5.984375 -16.34375 C 6.984375 -16.800781 8.070312 -17.03125 9.25 -17.03125 C 10.320312 -17.03125 11.300781 -16.863281 12.1875 -16.53125 C 13.070312 -16.195312 13.804688 -15.660156 14.390625 -14.921875 L 14.859375 -16.5625 Z M 14.21875 -8.25 C 14.21875 -9.113281 14.097656 -9.835938 13.859375 -10.421875 C 13.628906 -11.015625 13.320312 -11.492188 12.9375 -11.859375 C 12.550781 -12.234375 12.09375 -12.503906 11.5625 -12.671875 C 11.039062 -12.835938 10.484375 -12.921875 9.890625 -12.921875 C 9.285156 -12.921875 8.71875 -12.796875 8.1875 -12.546875 C 7.664062 -12.304688 7.203125 -11.976562 6.796875 -11.5625 C 6.398438 -11.15625 6.09375 -10.664062 5.875 -10.09375 C 5.65625 -9.53125 5.546875 -8.9375 5.546875 -8.3125 C 5.546875 -7.664062 5.65625 -7.0625 5.875 -6.5 C 6.09375 -5.945312 6.398438 -5.460938 6.796875 -5.046875 C 7.203125 -4.640625 7.664062 -4.3125 8.1875 -4.0625 C 8.71875 -3.820312 9.285156 -3.703125 9.890625 -3.703125 C 11.085938 -3.703125 12.101562 -4.070312 12.9375 -4.8125 C 13.769531 -5.5625 14.195312 -6.707031 14.21875 -8.25 Z M 14.21875 -8.25 "/></g></g></g><g fill="#ffffff" fill-opacity="1"><g transform="translate(273.772696, 182.670077)"><g><path d="M 11.078125 -17.03125 C 12.242188 -17.03125 13.328125 -16.800781 14.328125 -16.34375 C 15.328125 -15.882812 16.191406 -15.257812 16.921875 -14.46875 C 17.660156 -13.6875 18.234375 -12.765625 18.640625 -11.703125 C 19.054688 -10.648438 19.265625 -9.519531 19.265625 -8.3125 C 19.265625 -7.113281 19.054688 -5.984375 18.640625 -4.921875 C 18.234375 -3.867188 17.660156 -2.945312 16.921875 -2.15625 C 16.191406 -1.363281 15.328125 -0.738281 14.328125 -0.28125 C 13.328125 0.175781 12.242188 0.40625 11.078125 0.40625 C 10.097656 0.40625 9.15625 0.234375 8.25 -0.109375 C 7.351562 -0.460938 6.648438 -0.90625 6.140625 -1.4375 L 5.46875 0 L 1.53125 0 L 1.53125 -24.375 L 6.140625 -24.375 L 6.140625 -15.21875 C 7.410156 -16.425781 9.054688 -17.03125 11.078125 -17.03125 Z M 10.453125 -3.703125 C 11.054688 -3.703125 11.617188 -3.820312 12.140625 -4.0625 C 12.660156 -4.3125 13.117188 -4.640625 13.515625 -5.046875 C 13.921875 -5.460938 14.234375 -5.945312 14.453125 -6.5 C 14.679688 -7.0625 14.796875 -7.664062 14.796875 -8.3125 C 14.796875 -8.9375 14.679688 -9.53125 14.453125 -10.09375 C 14.234375 -10.664062 13.921875 -11.15625 13.515625 -11.5625 C 13.117188 -11.976562 12.660156 -12.304688 12.140625 -12.546875 C 11.617188 -12.796875 11.054688 -12.921875 10.453125 -12.921875 C 9.847656 -12.921875 9.285156 -12.835938 8.765625 -12.671875 C 8.242188 -12.503906 7.785156 -12.234375 7.390625 -11.859375 C 7.003906 -11.492188 6.695312 -11.015625 6.46875 -10.421875 C 6.25 -9.835938 6.140625 -9.113281 6.140625 -8.25 C 6.140625 -7.46875 6.25 -6.789062 6.46875 -6.21875 C 6.695312 -5.65625 7.003906 -5.191406 7.390625 -4.828125 C 7.785156 -4.460938 8.242188 -4.179688 8.765625 -3.984375 C 9.285156 -3.796875 9.847656 -3.703125 10.453125 -3.703125 Z M 10.453125 -3.703125 "/></g></g></g><g fill="#ffffff" fill-opacity="1"><g transform="translate(181.748947, 200.524981)"><g><path d="M 7.015625 -7.859375 L 7.015625 -2.765625 C 7.015625 -1.867188 6.742188 -1.164062 6.203125 -0.65625 C 5.660156 -0.144531 4.914062 0.109375 3.96875 0.109375 C 3.019531 0.109375 2.285156 -0.144531 1.765625 -0.65625 C 1.253906 -1.175781 1 -1.890625 1 -2.796875 L 1 -7.859375 L 1.90625 -7.859375 L 1.90625 -2.734375 C 1.90625 -2.078125 2.082031 -1.570312 2.4375 -1.21875 C 2.800781 -0.863281 3.332031 -0.6875 4.03125 -0.6875 C 4.6875 -0.6875 5.191406 -0.863281 5.546875 -1.21875 C 5.910156 -1.570312 6.09375 -2.078125 6.09375 -2.734375 L 6.09375 -7.859375 Z M 7.015625 -7.859375 "/></g></g></g><g fill="#ffffff" fill-opacity="1"><g transform="translate(191.313563, 200.524981)"><g><path d="M 4.96875 0 L 4.96875 -3.8125 C 4.96875 -4.289062 4.859375 -4.644531 4.640625 -4.875 C 4.421875 -5.113281 4.082031 -5.234375 3.625 -5.234375 C 3.007812 -5.234375 2.554688 -5.066406 2.265625 -4.734375 C 1.984375 -4.398438 1.84375 -3.851562 1.84375 -3.09375 L 1.84375 0 L 0.953125 0 L 0.953125 -5.890625 L 1.671875 -5.890625 L 1.8125 -5.078125 L 1.859375 -5.078125 C 2.035156 -5.367188 2.289062 -5.59375 2.625 -5.75 C 2.957031 -5.914062 3.328125 -6 3.734375 -6 C 4.441406 -6 4.972656 -5.828125 5.328125 -5.484375 C 5.679688 -5.140625 5.859375 -4.59375 5.859375 -3.84375 L 5.859375 0 Z M 4.96875 0 "/></g></g></g><g fill="#ffffff" fill-opacity="1"><g transform="translate(199.622235, 200.524981)"><g><path d="M 1.84375 0 L 0.953125 0 L 0.953125 -8.359375 L 1.84375 -8.359375 Z M 1.84375 0 "/></g></g></g><g fill="#ffffff" fill-opacity="1"><g transform="translate(203.964488, 200.524981)"><g><path d="M 3.4375 0.109375 C 2.5625 0.109375 1.875 -0.15625 1.375 -0.6875 C 0.875 -1.21875 0.625 -1.953125 0.625 -2.890625 C 0.625 -3.835938 0.851562 -4.59375 1.3125 -5.15625 C 1.78125 -5.71875 2.410156 -6 3.203125 -6 C 3.941406 -6 4.523438 -5.753906 4.953125 -5.265625 C 5.378906 -4.773438 5.59375 -4.132812 5.59375 -3.34375 L 5.59375 -2.78125 L 1.546875 -2.78125 C 1.554688 -2.09375 1.726562 -1.566406 2.0625 -1.203125 C 2.394531 -0.847656 2.863281 -0.671875 3.46875 -0.671875 C 4.101562 -0.671875 4.726562 -0.800781 5.34375 -1.0625 L 5.34375 -0.28125 C 5.03125 -0.132812 4.734375 -0.0351562 4.453125 0.015625 C 4.171875 0.078125 3.832031 0.109375 3.4375 0.109375 Z M 3.1875 -5.25 C 2.71875 -5.25 2.34375 -5.09375 2.0625 -4.78125 C 1.78125 -4.476562 1.613281 -4.050781 1.5625 -3.5 L 4.640625 -3.5 C 4.640625 -4.0625 4.515625 -4.492188 4.265625 -4.796875 C 4.015625 -5.097656 3.65625 -5.25 3.1875 -5.25 Z M 3.1875 -5.25 "/></g></g></g><g fill="#ffffff" fill-opacity="1"><g transform="translate(211.693495, 200.524981)"><g><path d="M 4.5625 0 L 4.390625 -0.84375 L 4.34375 -0.84375 C 4.050781 -0.46875 3.757812 -0.210938 3.46875 -0.078125 C 3.175781 0.046875 2.8125 0.109375 2.375 0.109375 C 1.789062 0.109375 1.332031 -0.0390625 1 -0.34375 C 0.664062 -0.644531 0.5 -1.070312 0.5 -1.625 C 0.5 -2.8125 1.453125 -3.4375 3.359375 -3.5 L 4.359375 -3.53125 L 4.359375 -3.890625 C 4.359375 -4.359375 4.257812 -4.703125 4.0625 -4.921875 C 3.863281 -5.140625 3.546875 -5.25 3.109375 -5.25 C 2.617188 -5.25 2.0625 -5.097656 1.4375 -4.796875 L 1.171875 -5.484375 C 1.453125 -5.640625 1.765625 -5.757812 2.109375 -5.84375 C 2.460938 -5.9375 2.8125 -5.984375 3.15625 -5.984375 C 3.863281 -5.984375 4.382812 -5.828125 4.71875 -5.515625 C 5.050781 -5.203125 5.21875 -4.703125 5.21875 -4.015625 L 5.21875 0 Z M 2.546875 -0.625 C 3.109375 -0.625 3.546875 -0.773438 3.859375 -1.078125 C 4.171875 -1.390625 4.328125 -1.816406 4.328125 -2.359375 L 4.328125 -2.890625 L 3.4375 -2.859375 C 2.726562 -2.828125 2.21875 -2.710938 1.90625 -2.515625 C 1.59375 -2.328125 1.4375 -2.023438 1.4375 -1.609375 C 1.4375 -1.296875 1.535156 -1.050781 1.734375 -0.875 C 1.929688 -0.707031 2.203125 -0.625 2.546875 -0.625 Z M 2.546875 -0.625 "/></g></g></g><g fill="#ffffff" fill-opacity="1"><g transform="translate(219.36883, 200.524981)"><g><path d="M 4.75 -1.609375 C 4.75 -1.054688 4.539062 -0.628906 4.125 -0.328125 C 3.71875 -0.0351562 3.144531 0.109375 2.40625 0.109375 C 1.625 0.109375 1.015625 -0.015625 0.578125 -0.265625 L 0.578125 -1.09375 C 0.867188 -0.945312 1.175781 -0.832031 1.5 -0.75 C 1.820312 -0.664062 2.132812 -0.625 2.4375 -0.625 C 2.894531 -0.625 3.25 -0.695312 3.5 -0.84375 C 3.757812 -1 3.890625 -1.226562 3.890625 -1.53125 C 3.890625 -1.757812 3.785156 -1.953125 3.578125 -2.109375 C 3.378906 -2.273438 2.992188 -2.472656 2.421875 -2.703125 C 1.867188 -2.898438 1.476562 -3.070312 1.25 -3.21875 C 1.019531 -3.375 0.847656 -3.550781 0.734375 -3.75 C 0.617188 -3.945312 0.5625 -4.175781 0.5625 -4.4375 C 0.5625 -4.914062 0.753906 -5.296875 1.140625 -5.578125 C 1.535156 -5.859375 2.078125 -6 2.765625 -6 C 3.398438 -6 4.019531 -5.867188 4.625 -5.609375 L 4.296875 -4.875 C 3.710938 -5.125 3.179688 -5.25 2.703125 -5.25 C 2.273438 -5.25 1.953125 -5.179688 1.734375 -5.046875 C 1.523438 -4.910156 1.421875 -4.726562 1.421875 -4.5 C 1.421875 -4.34375 1.457031 -4.207031 1.53125 -4.09375 C 1.613281 -3.988281 1.742188 -3.882812 1.921875 -3.78125 C 2.109375 -3.675781 2.453125 -3.53125 2.953125 -3.34375 C 3.648438 -3.09375 4.125 -2.835938 4.375 -2.578125 C 4.625 -2.316406 4.75 -1.992188 4.75 -1.609375 Z M 4.75 -1.609375 "/></g></g></g><g fill="#ffffff" fill-opacity="1"><g transform="translate(226.174665, 200.524981)"><g><path d="M 4.96875 0 L 4.96875 -3.8125 C 4.96875 -4.289062 4.859375 -4.644531 4.640625 -4.875 C 4.421875 -5.113281 4.082031 -5.234375 3.625 -5.234375 C 3 -5.234375 2.546875 -5.066406 2.265625 -4.734375 C 1.984375 -4.398438 1.84375 -3.847656 1.84375 -3.078125 L 1.84375 0 L 0.953125 0 L 0.953125 -8.359375 L 1.84375 -8.359375 L 1.84375 -5.828125 C 1.84375 -5.523438 1.828125 -5.273438 1.796875 -5.078125 L 1.84375 -5.078125 C 2.019531 -5.359375 2.269531 -5.578125 2.59375 -5.734375 C 2.914062 -5.898438 3.285156 -5.984375 3.703125 -5.984375 C 4.421875 -5.984375 4.957031 -5.8125 5.3125 -5.46875 C 5.675781 -5.125 5.859375 -4.582031 5.859375 -3.84375 L 5.859375 0 Z M 4.96875 0 "/></g></g></g><g fill="#ffffff" fill-opacity="1"><g transform="translate(234.483336, 200.524981)"><g/></g></g><g fill="#ffffff" fill-opacity="1"><g transform="translate(238.900732, 200.524981)"><g><path d="M 3.5 0 L 2.578125 0 L 2.578125 -7.046875 L 0.09375 -7.046875 L 0.09375 -7.859375 L 5.984375 -7.859375 L 5.984375 -7.046875 L 3.5 -7.046875 Z M 3.5 0 "/></g></g></g><g fill="#ffffff" fill-opacity="1"><g transform="translate(246.543863, 200.524981)"><g><path d="M 4.5625 0 L 4.390625 -0.84375 L 4.34375 -0.84375 C 4.050781 -0.46875 3.757812 -0.210938 3.46875 -0.078125 C 3.175781 0.046875 2.8125 0.109375 2.375 0.109375 C 1.789062 0.109375 1.332031 -0.0390625 1 -0.34375 C 0.664062 -0.644531 0.5 -1.070312 0.5 -1.625 C 0.5 -2.8125 1.453125 -3.4375 3.359375 -3.5 L 4.359375 -3.53125 L 4.359375 -3.890625 C 4.359375 -4.359375 4.257812 -4.703125 4.0625 -4.921875 C 3.863281 -5.140625 3.546875 -5.25 3.109375 -5.25 C 2.617188 -5.25 2.0625 -5.097656 1.4375 -4.796875 L 1.171875 -5.484375 C 1.453125 -5.640625 1.765625 -5.757812 2.109375 -5.84375 C 2.460938 -5.9375 2.8125 -5.984375 3.15625 -5.984375 C 3.863281 -5.984375 4.382812 -5.828125 4.71875 -5.515625 C 5.050781 -5.203125 5.21875 -4.703125 5.21875 -4.015625 L 5.21875 0 Z M 2.546875 -0.625 C 3.109375 -0.625 3.546875 -0.773438 3.859375 -1.078125 C 4.171875 -1.390625 4.328125 -1.816406 4.328125 -2.359375 L 4.328125 -2.890625 L 3.4375 -2.859375 C 2.726562 -2.828125 2.21875 -2.710938 1.90625 -2.515625 C 1.59375 -2.328125 1.4375 -2.023438 1.4375 -1.609375 C 1.4375 -1.296875 1.535156 -1.050781 1.734375 -0.875 C 1.929688 -0.707031 2.203125 -0.625 2.546875 -0.625 Z M 2.546875 -0.625 "/></g></g></g><g fill="#ffffff" fill-opacity="1"><g transform="translate(254.219197, 200.524981)"><g><path d="M 1.84375 0 L 0.953125 0 L 0.953125 -8.359375 L 1.84375 -8.359375 Z M 1.84375 0 "/></g></g></g><g fill="#ffffff" fill-opacity="1"><g transform="translate(258.561451, 200.524981)"><g><path d="M 3.4375 0.109375 C 2.5625 0.109375 1.875 -0.15625 1.375 -0.6875 C 0.875 -1.21875 0.625 -1.953125 0.625 -2.890625 C 0.625 -3.835938 0.851562 -4.59375 1.3125 -5.15625 C 1.78125 -5.71875 2.410156 -6 3.203125 -6 C 3.941406 -6 4.523438 -5.753906 4.953125 -5.265625 C 5.378906 -4.773438 5.59375 -4.132812 5.59375 -3.34375 L 5.59375 -2.78125 L 1.546875 -2.78125 C 1.554688 -2.09375 1.726562 -1.566406 2.0625 -1.203125 C 2.394531 -0.847656 2.863281 -0.671875 3.46875 -0.671875 C 4.101562 -0.671875 4.726562 -0.800781 5.34375 -1.0625 L 5.34375 -0.28125 C 5.03125 -0.132812 4.734375 -0.0351562 4.453125 0.015625 C 4.171875 0.078125 3.832031 0.109375 3.4375 0.109375 Z M 3.1875 -5.25 C 2.71875 -5.25 2.34375 -5.09375 2.0625 -4.78125 C 1.78125 -4.476562 1.613281 -4.050781 1.5625 -3.5 L 4.640625 -3.5 C 4.640625 -4.0625 4.515625 -4.492188 4.265625 -4.796875 C 4.015625 -5.097656 3.65625 -5.25 3.1875 -5.25 Z M 3.1875 -5.25 "/></g></g></g><g fill="#ffffff" fill-opacity="1"><g transform="translate(266.290459, 200.524981)"><g><path d="M 4.96875 0 L 4.96875 -3.8125 C 4.96875 -4.289062 4.859375 -4.644531 4.640625 -4.875 C 4.421875 -5.113281 4.082031 -5.234375 3.625 -5.234375 C 3.007812 -5.234375 2.554688 -5.066406 2.265625 -4.734375 C 1.984375 -4.398438 1.84375 -3.851562 1.84375 -3.09375 L 1.84375 0 L 0.953125 0 L 0.953125 -5.890625 L 1.671875 -5.890625 L 1.8125 -5.078125 L 1.859375 -5.078125 C 2.035156 -5.367188 2.289062 -5.59375 2.625 -5.75 C 2.957031 -5.914062 3.328125 -6 3.734375 -6 C 4.441406 -6 4.972656 -5.828125 5.328125 -5.484375 C 5.679688 -5.140625 5.859375 -4.59375 5.859375 -3.84375 L 5.859375 0 Z M 4.96875 0 "/></g></g></g><g fill="#ffffff" fill-opacity="1"><g transform="translate(274.599132, 200.524981)"><g><path d="M 2.84375 -0.625 C 3 -0.625 3.148438 -0.632812 3.296875 -0.65625 C 3.453125 -0.6875 3.570312 -0.710938 3.65625 -0.734375 L 3.65625 -0.046875 C 3.550781 -0.00390625 3.40625 0.03125 3.21875 0.0625 C 3.03125 0.09375 2.863281 0.109375 2.71875 0.109375 C 1.582031 0.109375 1.015625 -0.488281 1.015625 -1.6875 L 1.015625 -5.1875 L 0.171875 -5.1875 L 0.171875 -5.625 L 1.015625 -6 L 1.390625 -7.25 L 1.90625 -7.25 L 1.90625 -5.890625 L 3.609375 -5.890625 L 3.609375 -5.1875 L 1.90625 -5.1875 L 1.90625 -1.734375 C 1.90625 -1.378906 1.988281 -1.101562 2.15625 -0.90625 C 2.320312 -0.71875 2.550781 -0.625 2.84375 -0.625 Z M 2.84375 -0.625 "/></g></g></g><g fill="#ffffff" fill-opacity="1"><g transform="translate(280.041673, 200.524981)"><g><path d="M 4.75 -1.609375 C 4.75 -1.054688 4.539062 -0.628906 4.125 -0.328125 C 3.71875 -0.0351562 3.144531 0.109375 2.40625 0.109375 C 1.625 0.109375 1.015625 -0.015625 0.578125 -0.265625 L 0.578125 -1.09375 C 0.867188 -0.945312 1.175781 -0.832031 1.5 -0.75 C 1.820312 -0.664062 2.132812 -0.625 2.4375 -0.625 C 2.894531 -0.625 3.25 -0.695312 3.5 -0.84375 C 3.757812 -1 3.890625 -1.226562 3.890625 -1.53125 C 3.890625 -1.757812 3.785156 -1.953125 3.578125 -2.109375 C 3.378906 -2.273438 2.992188 -2.472656 2.421875 -2.703125 C 1.867188 -2.898438 1.476562 -3.070312 1.25 -3.21875 C 1.019531 -3.375 0.847656 -3.550781 0.734375 -3.75 C 0.617188 -3.945312 0.5625 -4.175781 0.5625 -4.4375 C 0.5625 -4.914062 0.753906 -5.296875 1.140625 -5.578125 C 1.535156 -5.859375 2.078125 -6 2.765625 -6 C 3.398438 -6 4.019531 -5.867188 4.625 -5.609375 L 4.296875 -4.875 C 3.710938 -5.125 3.179688 -5.25 2.703125 -5.25 C 2.273438 -5.25 1.953125 -5.179688 1.734375 -5.046875 C 1.523438 -4.910156 1.421875 -4.726562 1.421875 -4.5 C 1.421875 -4.34375 1.457031 -4.207031 1.53125 -4.09375 C 1.613281 -3.988281 1.742188 -3.882812 1.921875 -3.78125 C 2.109375 -3.675781 2.453125 -3.53125 2.953125 -3.34375 C 3.648438 -3.09375 4.125 -2.835938 4.375 -2.578125 C 4.625 -2.316406 4.75 -1.992188 4.75 -1.609375 Z M 4.75 -1.609375 "/></g></g></g></svg>